<svg width="30" height="30" viewBox="0 0 30 30" fill="none" xmlns="http://www.w3.org/2000/svg">
<rect width="30" height="30" rx="15" fill="#68AC43"/>
<path d="M8 13.4512C8 12.6497 8.6497 12 9.45115 12V12C9.99313 12 10.4899 11.698 10.7394 11.2168L11.3704 10C11.6889 9.38564 12.3233 9 13.0153 9H16.9847C17.6767 9 18.3111 9.38564 18.6296 10L19.2606 11.2168C19.5101 11.698 20.0069 12 20.5488 12V12C21.3503 12 22 12.6497 22 13.4512V17.1429C22 17.9396 22 18.338 21.9248 18.6676C21.6684 19.7911 20.7911 20.6684 19.6676 20.9248C19.338 21 18.9396 21 18.1429 21H11.8571C11.0604 21 10.662 21 10.3324 20.9248C9.20895 20.6684 8.33164 19.7911 8.07522 18.6676C8 18.338 8 17.9396 8 17.1429V13.4512Z" stroke="white"/>
<circle cx="15.0001" cy="15.8333" r="2.83333" stroke="white"/>
</svg>
