<svg width="24" height="24" viewBox="0 0 24 24" fill="none" xmlns="http://www.w3.org/2000/svg">
<path d="M3 3L21 21" stroke="#333333" stroke-width="2" stroke-linecap="round" stroke-linejoin="round"/>
<path d="M10.584 10.587C9.80248 11.3679 9.80203 12.6345 10.583 13.416C11.3639 14.1975 12.6305 14.1979 13.412 13.417" stroke="#333333" stroke-width="1.5" stroke-linecap="round" stroke-linejoin="round"/>
<path d="M9.088 4.40356C8.55702 4.55546 8.24971 5.10905 8.4016 5.64003C8.5535 6.17102 9.10708 6.47833 9.63807 6.32643L9.088 4.40356ZM12 5L11.9965 6H12V5ZM22 12L22.8682 12.4963C23.044 12.1888 23.044 11.8113 22.8683 11.5038L22 12ZM18.7627 14.8092C18.3878 15.2148 18.4127 15.8475 18.8183 16.2224C19.2239 16.5972 19.8565 16.5723 20.2314 16.1668L18.7627 14.8092ZM17.9162 18.1781C18.374 17.8693 18.4949 17.2477 18.1861 16.7898C17.8773 16.332 17.2557 16.2111 16.7979 16.5199L17.9162 18.1781ZM2 12L1.13182 11.5037C0.956079 11.8112 0.956057 12.1887 1.13177 12.4962L2 12ZM7.19335 7.48658C7.65041 7.17655 7.7696 6.55471 7.45958 6.09765C7.14956 5.64059 6.52771 5.52139 6.07065 5.83142L7.19335 7.48658ZM9.36304 5.365L9.63807 6.32643C10.4049 6.10707 11.1989 5.99717 11.9965 5.99999L12 5L12.0036 4C11.0176 3.99651 10.036 4.13237 9.088 4.40356L9.36304 5.365ZM12 5V6C15.52 6 18.5732 8.01891 21.1318 12.4962L22 12L22.8683 11.5038C20.0928 6.64709 16.4801 4 12 4V5ZM22 12L21.1319 11.5037C20.3842 12.8116 19.5933 13.9105 18.7627 14.8092L19.497 15.488L20.2314 16.1668C21.1827 15.1375 22.0598 13.9104 22.8682 12.4963L22 12ZM17.357 17.349L16.7979 16.5199C15.3292 17.5104 13.7394 18 12 18V19V20C14.1446 20 16.1228 19.3876 17.9162 18.1781L17.357 17.349ZM12 19V18C8.48001 18 5.4268 15.9811 2.86823 11.5038L2 12L1.13177 12.4962C3.9072 17.3529 7.51999 20 12 20V19ZM2 12L2.86818 12.4963C4.18518 10.1922 5.63485 8.5437 7.19335 7.48658L6.632 6.659L6.07065 5.83142C4.19115 7.10629 2.55282 9.01778 1.13182 11.5037L2 12Z" fill="#333333"/>
</svg>
